{
    "asset" : {
        "generator" : "Khronos glTF Blender I/O v1.3.48",
        "version" : "2.0"
    },
    "scene" : 0,
    "scenes" : [
        {
            "name" : "Scene",
            "nodes" : [
                0,
                1,
                2,
                3,
                4
            ]
        }
    ],
    "nodes" : [
        {
            "name" : "Light",
            "rotation" : [
                0.5350949168205261,
                0.5767374634742737,
                0.6126369833946228,
                -0.07565215229988098
            ],
            "translation" : [
                -11.366765975952148,
                0,
                15
            ]
        },
        {
            "name" : "Camera",
            "rotation" : [
                0.7071024775505066,
                0.00246826303191483,
                -0.002468263264745474,
                0.7071024775505066
            ],
            "translation" : [
                0,
                1.75,
                15.234112739562988
            ]
        },
        {
            "name" : "Light.001",
            "rotation" : [
                0.16907575726509094,
                0.7558803558349609,
                -0.27217137813568115,
                0.570947527885437
            ],
            "translation" : [
                13.75074577331543,
                0,
                15
            ]
        },
        {
            "mesh" : 0,
            "name" : "path901",
            "rotation" : [
                0.7071068286895752,
                0,
                0,
                0.7071068286895752
            ],
            "scale" : [
                26.26640510559082,
                26.26640510559082,
                26.26640510559082
            ],
            "translation" : [
                0,
                0,
                0.8147637844085693
            ]
        },
        {
            "name" : "Sun",
            "rotation" : [
                -0.027921637520194054,
                0,
                0,
                0.9996101260185242
            ],
            "translation" : [
                0,
                2.978487730026245,
                0
            ]
        }
    ],
    "animations" : [
        {
            "channels" : [
                {
                    "sampler" : 0,
                    "target" : {
                        "node" : 1,
                        "path" : "translation"
                    }
                },
                {
                    "sampler" : 1,
                    "target" : {
                        "node" : 1,
                        "path" : "rotation"
                    }
                },
                {
                    "sampler" : 2,
                    "target" : {
                        "node" : 1,
                        "path" : "scale"
                    }
                }
            ],
            "name" : "CameraAction",
            "samplers" : [
                {
                    "input" : 4,
                    "interpolation" : "STEP",
                    "output" : 5
                },
                {
                    "input" : 4,
                    "interpolation" : "STEP",
                    "output" : 6
                },
                {
                    "input" : 4,
                    "interpolation" : "STEP",
                    "output" : 7
                }
            ]
        },
        {
            "channels" : [
                {
                    "sampler" : 0,
                    "target" : {
                        "node" : 2,
                        "path" : "translation"
                    }
                },
                {
                    "sampler" : 1,
                    "target" : {
                        "node" : 2,
                        "path" : "rotation"
                    }
                },
                {
                    "sampler" : 2,
                    "target" : {
                        "node" : 2,
                        "path" : "scale"
                    }
                }
            ],
            "name" : "Light.001Action",
            "samplers" : [
                {
                    "input" : 4,
                    "interpolation" : "STEP",
                    "output" : 8
                },
                {
                    "input" : 4,
                    "interpolation" : "STEP",
                    "output" : 9
                },
                {
                    "input" : 4,
                    "interpolation" : "STEP",
                    "output" : 10
                }
            ]
        },
        {
            "channels" : [
                {
                    "sampler" : 0,
                    "target" : {
                        "node" : 3,
                        "path" : "rotation"
                    }
                }
            ],
            "name" : "path901Action.001",
            "samplers" : [
                {
                    "input" : 11,
                    "interpolation" : "LINEAR",
                    "output" : 12
                }
            ]
        }
    ],
    "materials" : [
        {
            "doubleSided" : true,
            "emissiveFactor" : [
                0,
                0,
                0
            ],
            "name" : "SVGMat.001",
            "pbrMetallicRoughness" : {
                "baseColorFactor" : [
                    0.8000000715255737,
                    0.2530333399772644,
                    0,
                    1
                ],
                "metallicFactor" : 1,
                "roughnessFactor" : 0
            }
        }
    ],
    "meshes" : [
        {
            "name" : "path901",
            "primitives" : [
                {
                    "attributes" : {
                        "POSITION" : 0,
                        "NORMAL" : 1,
                        "TEXCOORD_0" : 2
                    },
                    "indices" : 3,
                    "material" : 0
                }
            ]
        }
    ],
    "accessors" : [
        {
            "bufferView" : 0,
            "componentType" : 5126,
            "count" : 7051,
            "max" : [
                0.0921458750963211,
                0.004999999888241291,
                0.021209001541137695
            ],
            "min" : [
                -0.09872044622898102,
                -0.004999999888241291,
                -0.15244334936141968
            ],
            "type" : "VEC3"
        },
        {
            "bufferView" : 1,
            "componentType" : 5126,
            "count" : 7051,
            "type" : "VEC3"
        },
        {
            "bufferView" : 2,
            "componentType" : 5126,
            "count" : 7051,
            "type" : "VEC2"
        },
        {
            "bufferView" : 3,
            "componentType" : 5123,
            "count" : 12852,
            "type" : "SCALAR"
        },
        {
            "bufferView" : 4,
            "componentType" : 5126,
            "count" : 1,
            "max" : [
                0.041666666666666664
            ],
            "min" : [
                0.041666666666666664
            ],
            "type" : "SCALAR"
        },
        {
            "bufferView" : 5,
            "componentType" : 5126,
            "count" : 1,
            "type" : "VEC3"
        },
        {
            "bufferView" : 6,
            "componentType" : 5126,
            "count" : 1,
            "type" : "VEC4"
        },
        {
            "bufferView" : 7,
            "componentType" : 5126,
            "count" : 1,
            "type" : "VEC3"
        },
        {
            "bufferView" : 8,
            "componentType" : 5126,
            "count" : 1,
            "type" : "VEC3"
        },
        {
            "bufferView" : 9,
            "componentType" : 5126,
            "count" : 1,
            "type" : "VEC4"
        },
        {
            "bufferView" : 10,
            "componentType" : 5126,
            "count" : 1,
            "type" : "VEC3"
        },
        {
            "bufferView" : 11,
            "componentType" : 5126,
            "count" : 300,
            "max" : [
                12.5
            ],
            "min" : [
                0.041666666666666664
            ],
            "type" : "SCALAR"
        },
        {
            "bufferView" : 12,
            "componentType" : 5126,
            "count" : 300,
            "type" : "VEC4"
        }
    ],
    "bufferViews" : [
        {
            "buffer" : 0,
            "byteLength" : 84612,
            "byteOffset" : 0
        },
        {
            "buffer" : 0,
            "byteLength" : 84612,
            "byteOffset" : 84612
        },
        {
            "buffer" : 0,
            "byteLength" : 56408,
            "byteOffset" : 169224
        },
        {
            "buffer" : 0,
            "byteLength" : 25704,
            "byteOffset" : 225632
        },
        {
            "buffer" : 0,
            "byteLength" : 4,
            "byteOffset" : 251336
        },
        {
            "buffer" : 0,
            "byteLength" : 12,
            "byteOffset" : 251340
        },
        {
            "buffer" : 0,
            "byteLength" : 16,
            "byteOffset" : 251352
        },
        {
            "buffer" : 0,
            "byteLength" : 12,
            "byteOffset" : 251368
        },
        {
            "buffer" : 0,
            "byteLength" : 12,
            "byteOffset" : 251380
        },
        {
            "buffer" : 0,
            "byteLength" : 16,
            "byteOffset" : 251392
        },
        {
            "buffer" : 0,
            "byteLength" : 12,
            "byteOffset" : 251408
        },
        {
            "buffer" : 0,
            "byteLength" : 1200,
            "byteOffset" : 251420
        },
        {
            "buffer" : 0,
            "byteLength" : 4800,
            "byteOffset" : 252620
        }
    ],
    "buffers" : [
        {
            "byteLength" : 257420,
            "uri" : "data:application/octet-stream;base64,"
        }
    ]
}
